<svg xmlns="http://www.w3.org/2000/svg" version="1.1" xmlns:xlink="http://www.w3.org/1999/xlink" xmlns:svgjs="http://svgjs.com/svgjs" width="689" height="1026"><svg width="689" height="1026" viewBox="0 0 689 1026" fill="none" xmlns="http://www.w3.org/2000/svg">
<path d="M429.251 1025.12C424.691 1014.11 423.492 1002.47 425.238 991.134C426.381 983.721 423.605 979.777 418.916 975.572C416.868 973.736 415.268 971.399 413.604 970.827C404.904 972.593 396.193 974.303 387.517 976.177C386.031 976.498 384.4 977.218 383.34 978.264C376.633 984.885 372.996 993.138 370.722 1002.17C370.188 1004.3 368.454 1006.12 367.273 1008.08C366.133 1005.9 364.589 1003.83 363.924 1001.51C360.771 990.502 360.084 979.369 362.737 968.109C363 966.99 362.617 965.319 361.891 964.431C354.861 955.837 353.483 945.166 350.892 934.957C347.548 921.79 346.085 908.351 346.96 894.825C348.388 872.788 355.476 853.104 373.048 838.512C383.002 830.246 394.675 825.251 407.167 822.238C410.48 821.439 414.131 821.719 414.752 826.214C415.28 830.026 413.021 831.439 409.331 832.25C396.834 834.995 385.557 840.615 376.273 849.389C365.31 859.75 359.897 873.002 357.805 887.88C354.923 908.377 358.681 928.028 364.617 947.443C369.542 963.555 382.502 969.529 398.153 964.356C402.924 962.779 407.542 960.647 412.058 958.421C415.648 956.652 417.858 957.214 420.186 960.632C424.794 967.397 429.902 973.593 437.553 977.56C447.28 982.603 456.727 981.734 466.435 978.214C476.093 974.712 484.719 969.579 492.152 962.408C495.662 959.021 498.459 959.277 501.945 962.677C508.372 968.944 515.096 974.777 524.9 974.081C532.648 973.53 539.421 969.943 545.136 965.148C559.423 953.159 568.411 937.795 571.85 919.374C576.542 894.241 574.678 868.824 574.79 843.511C574.871 825.082 573.932 806.649 573.96 788.218C573.984 771.924 578.586 756.69 586.222 742.318C596.037 723.844 601.397 703.944 604.902 683.444C607.663 667.293 613.324 652.535 626.099 641.401C631.187 636.967 636.73 632.953 641.259 628.009C646.884 621.868 652.577 615.474 656.644 608.286C666.971 590.034 674.24 570.406 677.673 549.699C680.08 535.178 679.029 520.516 677.067 505.83C672.886 474.532 663.082 444.637 655.501 414.18C651.809 399.343 648.224 384.39 646.104 369.278C644.028 354.469 642.817 339.368 643.128 324.435C643.575 302.989 645.203 281.474 650.758 260.604C655.436 243.025 660.781 225.623 666.025 208.201C666.498 206.627 668.187 204.651 669.663 204.286C674.981 202.97 677.675 206.47 675.501 211.913C667.629 231.625 661.828 251.96 658.18 272.814C655.98 285.386 655.067 298.2 653.946 310.938C653.237 319.004 652.918 327.13 652.935 335.229C652.975 354.33 655.603 373.18 660.212 391.667C667.015 418.951 674.8 445.996 681.3 473.349C684.497 486.806 686.025 500.69 687.767 514.45C688.719 521.97 689.133 529.662 688.759 537.225C687.834 555.944 683.96 574.175 676.123 591.223C671.105 602.14 665.211 612.75 658.705 622.851C654.96 628.665 649.304 633.28 644.349 638.277C632.944 649.778 619.621 659.821 616.276 677.19C614.368 687.096 612.095 696.931 609.981 706.797C606.302 723.977 599.503 740.039 591.587 755.568C586.293 765.952 584.289 776.913 583.995 788.186C583.543 805.505 583.75 822.846 583.917 840.176C584.043 853.276 584.936 866.378 584.78 879.47C584.57 897.042 584.001 914.761 578.701 931.636C572.026 952.895 560.756 971.368 539.06 980.107C529.944 983.779 523.066 988.905 518.58 997.136C515.731 1002.36 514.18 1008.29 511.921 1013.84C511.307 1015.36 510.235 1016.68 509.373 1018.09C508.299 1016.64 506.661 1015.33 506.244 1013.71C503.629 1003.52 501.63 993.209 503.914 982.658C504.769 978.707 503.662 976.111 499.881 974.525C498.879 974.105 498.176 972.975 497.093 971.94C487.505 980.029 476.849 986.111 464.642 989.2C461.972 989.876 459.206 991.195 456.606 990.946C446.992 990.025 443.759 997.538 440.315 1003.66C436.701 1010.08 434.775 1017.45 431.993 1024.76C431.126 1025.12 430.376 1025.12 429.251 1025.12Z" fill="#17BAA2"></path>
<path d="M65.8729 11.1223C88.5217 22.0034 108.816 35.9709 128.693 50.573C133.318 53.9708 137.558 57.9018 141.892 61.6837C144.567 64.0186 146.964 65.044 150.896 63.7869C163.057 59.8984 175.436 59.696 187.571 64.1746C199.472 68.5667 208.924 81.3635 209.97 94.5113C211.722 116.526 202.835 134.752 189.408 150.771C175.193 167.73 159.735 183.659 144.603 199.834C127.618 217.991 112.367 237.364 101.573 259.904C94.0862 275.538 88.3495 291.905 86.0724 309.07C83.8694 325.678 82.092 342.496 82.1685 359.213C82.2576 378.722 86.0857 397.999 95.1564 415.532C107.642 439.666 126.746 455.203 154.24 460.351C171.755 463.631 188.215 461.664 203.983 454.368C219.147 447.351 230.982 436.178 239.935 421.965C248.15 408.923 252.791 394.727 252.677 379.39C252.624 372.342 250.426 365.309 248.966 356.917C246.153 359.565 244.249 361.25 242.464 363.053C228.954 376.699 212.531 380.982 194.157 377.01C179.352 373.808 169.454 363.472 163.275 350.453C158.3 339.972 155.328 328.49 152.076 317.275C151.265 314.478 150.074 313.991 147.856 313.007C141.381 310.134 134.958 307.038 128.883 303.41C125.472 301.373 125.669 296.998 128.159 294.865C129.854 293.414 134.796 293.223 136.41 294.626C145.842 302.83 157.218 303.862 168.68 304.013C186.007 304.242 203.135 305.347 219.538 311.45C237.973 318.309 250.271 331.416 257.889 349.35C263.434 362.403 265.112 376.083 263.714 389.925C262.061 406.28 255.828 421.316 245.924 434.36C232.72 451.752 216.12 464.717 194.431 470.299C181.64 473.591 168.808 474.048 155.808 472.201C154.699 472.044 153.549 472.18 152.212 472.18C156.656 480.275 161.057 488.071 165.248 495.978C171.262 507.326 173.925 519.357 174.034 532.318C174.197 551.711 178.279 570.345 189.151 586.849C200.777 604.498 216.9 615.979 237.746 620.018C249.276 622.252 261.04 623.246 272.633 625.194C283.062 626.946 293.408 626.746 303.179 622.954C310.081 620.276 316.338 615.936 322.436 612.584C314.526 602.817 306.941 593.55 299.47 584.192C294.052 577.405 290.792 569.539 289.999 560.982C289.192 552.289 294.571 543.134 305.885 539.232C323.19 533.262 340.789 533.093 357.972 539.31C372.759 544.661 377.367 557.627 369.725 573.641C365.632 582.219 359.466 589.876 353.748 597.587C350.023 602.61 345.422 606.984 340.268 612.697C348.544 616.671 356.191 621.765 364.596 623.965C372.453 626.023 381.123 625.42 389.418 625.231C396.946 625.058 404.512 624.243 411.954 623.045C427.979 620.464 443.952 616.811 456.817 606.387C471.426 594.549 481.692 579.284 485.722 560.631C487.511 552.352 488.506 543.781 488.746 535.312C489.281 516.482 494.656 499.356 504.851 483.618C507.148 480.072 509.199 476.367 511.133 473.123C505.85 473.123 500.399 472.896 494.973 473.163C474.866 474.154 456.762 468.189 440.462 456.906C419.65 442.498 406.256 422.492 401.153 397.888C396.48 375.353 400.472 353.76 413.823 334.467C423.821 320.019 438.123 312.168 454.84 308.121C469.029 304.686 483.453 304.173 497.984 303.967C506.909 303.841 515.859 302.351 523.62 297.163C524.703 296.439 525.728 295.616 526.718 294.767C529.342 292.515 534.917 292.275 535.856 295.003C536.694 297.441 536.389 302.126 534.803 303.211C529.113 307.104 522.904 310.574 516.413 312.829C512.748 314.103 511.473 315.842 510.885 319.034C508.258 333.291 503.796 346.842 495.009 358.595C486.034 370.601 474.836 378.139 458.989 378.286C443.503 378.43 430.87 373.072 420.323 362.077C419.054 360.754 417.735 359.479 416.425 358.197C416.196 357.974 415.893 357.827 415.622 357.647C408.245 373.518 410.066 392.531 416.786 408.679C421.641 420.343 428.428 430.775 437.694 439.338C450.709 451.365 465.762 459.165 483.734 461.218C507.408 463.924 528.653 458.006 546.976 443.228C559.579 433.063 567.718 419.403 573.056 403.962C577.641 390.701 580.122 377.231 580.974 363.244C582.84 332.561 578.43 302.861 567.86 274.102C561.288 256.221 551.68 239.984 540.152 224.772C526.59 206.878 510.148 191.72 494.891 175.422C481.13 160.722 467.38 145.752 459.316 126.879C453.586 113.466 450.252 99.6536 455.785 85.0989C460.683 72.2124 470.077 64.8381 483.279 62.174C494.097 59.9912 504.71 60.8471 515.252 64.5338C517.052 65.1633 520.454 62.6225 522.523 60.8526C542.593 43.6807 564.377 29.0387 587.428 16.2077C599.141 9.68764 611.187 4.05677 624.353 1.0965C641.44 -2.74502 653.356 3.47466 658.654 20.2716C661.079 27.9617 662.378 36.2432 662.676 44.3123C663.115 56.2157 663.02 68.2637 661.649 80.0755C660.131 93.1503 657.315 106.119 654.367 118.975C646.386 153.782 633.148 186.667 616.765 218.305C612.946 225.68 608.225 232.584 604.005 239.755C601.953 243.242 599.162 244.123 595.812 242.043C592.728 240.128 592.024 237.307 593.896 234.011C599.777 223.654 606.152 213.539 611.413 202.875C626.01 173.292 637.307 142.397 644.586 110.239C647.895 95.6214 648.683 80.4476 650.969 65.5806C653.111 51.6512 651.679 38.0651 647.82 24.6817C645.868 17.9096 642.104 11.8812 634.459 11.3991C629.607 11.0932 624.343 12.5116 619.713 14.3108C597.226 23.0481 576.554 35.1403 557.122 49.3786C547.243 56.6177 537.439 63.96 528.37 70.6848C531.989 78.0455 536.115 84.4115 538.306 91.3855C541.357 101.099 540.092 110.911 533.781 119.308C524.731 131.349 509.398 131.146 500.742 117.668C493.51 106.407 496.194 87.1246 505.62 76.8809C506.276 76.1675 506.946 75.4662 507.984 74.36C495.925 72.1348 484.697 70.8963 474.568 78.7902C468.552 83.4784 465.275 89.6167 464.927 97.0986C464.137 114.088 471.291 128.478 481.579 141.039C493.28 155.327 505.987 168.817 518.647 182.286C533.864 198.477 548.979 214.688 560.887 233.601C574.056 254.515 582.877 277.1 587.927 301.267C592.306 322.229 593.915 343.439 592.732 364.718C591.26 391.183 584.711 416.29 568.441 437.935C559.708 449.552 548.74 458.627 535.25 464.26C530.633 466.187 527.397 469.063 525.046 473.392C518.44 485.558 511.031 497.339 505.239 509.873C502.327 516.174 501.2 523.76 501.073 530.798C500.705 551.109 497.301 570.424 487.261 588.407C475.354 609.735 457.61 623.337 434.34 630.116C413.257 636.257 391.669 637.88 369.87 637.05C358.804 636.629 349.184 631.696 340.104 625.744C331.882 620.356 331.997 620.419 323.482 625.836C311.954 633.17 299.762 637.586 285.6 637.327C264.458 636.94 243.761 634.892 223.588 628.201C206.424 622.508 192.794 612.146 182.202 597.755C171.429 583.117 165.388 566.591 163.872 548.449C163.201 540.421 162.409 532.4 161.927 524.361C161.344 514.629 157.54 505.989 152.971 497.685C148.418 489.411 142.985 481.613 138.607 473.256C135.054 466.473 128.366 464.601 122.512 461.451C103.109 451.01 90.5858 434.657 81.9224 414.937C70.4669 388.861 69.427 361.192 71.0842 333.511C72.9552 302.262 80.4963 272.133 96.2078 244.797C103.739 231.695 112.614 219.158 122.313 207.563C133.885 193.729 147.23 181.395 159.367 168.013C172.239 153.822 185.753 139.933 193.37 121.934C197.621 111.887 201.255 101.591 197.051 90.2161C193.33 80.1502 186.023 74.7937 176.057 73.312C169.636 72.3573 162.957 73.1327 156.197 73.8015C164.312 83.3151 167.973 93.6897 166.855 105.594C165.689 118.003 156.819 128.629 144.773 128.114C135.832 127.731 127.391 119.348 124.887 108.433C121.663 94.3824 126.426 82.7411 135.94 72.231C120.675 58.4612 103.765 46.8882 86.3661 36.011C71.408 26.6594 56.0933 18.0588 38.9813 13.0105C23.9004 8.56141 18.9053 14.4039 15.0784 26.8047C10.8635 40.4626 11.5939 54.6374 12.6884 68.8954C15.0325 99.4352 22.6314 128.662 32.8861 157.305C42.2517 183.466 53.7429 208.656 68.5381 232.251C71.1891 236.479 71.0732 240.144 68.1129 242.066C64.8099 244.21 61.6533 243.15 58.817 238.781C45.7068 218.584 35.7042 196.849 26.8341 174.528C18.767 154.229 12.0938 133.491 7.50049 112.154C5.06519 100.842 3.44446 89.3307 1.96314 77.844C0.84888 69.2039 -0.327755 60.4183 0.0841097 51.7718C0.671512 39.4415 1.06812 26.8921 6.79847 15.3988C13.1321 2.69574 22.553 -2.0112 37.6068 0.869527C47.564 2.77495 56.6812 6.34709 65.8729 11.1223ZM319.806 590.763C323.681 595.002 327.557 599.241 331.666 603.734C342.642 593.254 352.201 582.484 358.952 569.545C364.248 559.394 363.032 554.504 353.565 550.554C338.558 544.291 323.275 544.865 308.34 551.095C302.489 553.535 300.754 558.439 302.66 564.493C305.848 574.615 312.461 582.497 319.806 590.763ZM431.863 346.603C429.886 344.09 427.909 341.576 425.925 339.053C421.381 343.025 421.363 344.653 424.604 349.395C429.722 356.882 437.115 361.301 445.124 364.718C458.15 370.276 472.808 366.026 482.312 355.437C492.573 344.004 496.449 330.076 500.056 315.333C495.209 315.719 490.72 316.077 487.685 316.319C486.696 323.147 486.709 329.843 484.649 335.826C480.797 347.01 468.086 359.023 454.126 358.126C445.296 357.559 438.544 352.914 431.863 346.603ZM179.943 354.463C199.612 377.141 230.801 366.318 241.648 343.647C240.351 341.882 239.014 340.063 237.607 338.15C225.9 355.835 211.594 361.264 198.976 356.6C191.234 353.738 185.097 348.449 180.949 341.247C176.539 333.588 174.234 325.412 176.722 316.441C172.383 316.113 168.359 315.809 164.332 315.505C164.067 324.473 172.209 345.807 179.943 354.463ZM508.747 96.6494C506.75 102.173 507.99 107.255 511.176 111.88C515.241 117.782 521.01 117.45 524.836 111.386C531.228 101.255 526.789 86.3829 518.635 81.1219C513.839 84.9703 510.271 89.6601 508.747 96.6494ZM136.922 92.0727C136.966 97.5564 136.281 103.179 137.294 108.478C138.053 112.453 141.597 116.417 145.991 115.777C148.833 115.363 152.084 112.146 153.608 109.345C158.453 100.44 154.202 87.9391 143.93 80.6825C141.674 84.2533 139.444 87.783 136.922 92.0727Z" fill="#17BAA2"></path>
<path d="M282.663 661.396C293.213 667.022 303.641 671.885 315.367 673.355C329.744 675.158 344.099 675.158 357.381 669.023C368.403 663.932 378.749 657.342 389.239 651.153C392.671 649.129 395.812 647.734 398.796 651.179C401.381 654.163 400.004 658.387 395.939 661.103C385.119 668.332 374.499 675.933 361.97 680.098C347.544 684.894 333.004 686.834 317.588 685.431C295.059 683.379 276.934 672.495 259.347 659.883C256.434 657.794 256.044 654.673 258.116 651.593C260.28 648.376 263.263 648.155 266.266 650.109C271.723 653.661 277.027 657.448 282.663 661.396Z" fill="#17BAA2"></path>
<path d="M282.408 939.629C282.711 939.154 283.181 938.883 283.65 938.612C283.599 939.059 283.548 939.507 283.228 940.074C282.831 940.074 282.702 939.954 282.408 939.629Z" fill="#17BAA2"></path>
</svg><style>@media (prefers-color-scheme: light) { :root { filter: none; } }
</style></svg>