<?xml version="1.0" standalone="no"?>
<!DOCTYPE svg PUBLIC "-//W3C//DTD SVG 20010904//EN"
 "http://www.w3.org/TR/2001/REC-SVG-20010904/DTD/svg10.dtd">
<svg version="1.0" xmlns="http://www.w3.org/2000/svg"
 width="1026.000000pt" height="1026.000000pt" viewBox="0 0 1026.000000 1026.000000"
 preserveAspectRatio="xMidYMid meet">
<metadata>
Created by potrace 1.14, written by Peter Selinger 2001-2017
</metadata>
<g transform="translate(0.000000,1026.000000) scale(0.100000,-0.100000)"
fill="#000000" stroke="none">
<path d="M1907 10249 c-159 -37 -239 -207 -240 -509 -1 -94 10 -279 17 -301 3
-8 7 -39 11 -69 3 -30 15 -99 26 -155 73 -354 199 -717 364 -1045 147 -295
194 -357 246 -330 36 20 34 55 -9 122 -203 322 -428 902 -496 1278 -3 19 -8
46 -11 60 -3 14 -8 45 -11 70 -3 25 -8 54 -10 65 -17 86 -23 344 -11 445 14
122 64 231 115 252 41 17 71 17 137 2 152 -34 415 -173 686 -361 123 -85 292
-219 298 -234 2 -6 -8 -23 -22 -37 -61 -65 -97 -168 -92 -265 13 -265 287
-350 394 -123 48 104 27 245 -52 353 l-38 52 36 7 c62 11 158 10 203 -3 246
-71 269 -338 56 -649 -79 -116 -170 -219 -413 -469 -157 -161 -186 -194 -263
-291 -131 -164 -260 -394 -327 -579 -33 -91 -83 -283 -96 -365 -4 -25 -9 -52
-10 -60 -3 -16 -14 -117 -21 -184 -5 -54 -5 -333 0 -371 22 -158 33 -213 57
-297 89 -301 245 -502 490 -628 l89 -46 66 -104 c170 -267 211 -379 215 -582
8 -407 214 -751 534 -891 63 -27 206 -71 265 -81 164 -28 237 -35 386 -36 146
-1 190 5 275 40 63 25 202 110 214 131 4 5 34 -11 68 -35 104 -74 242 -133
312 -135 242 -4 348 3 509 35 234 47 389 119 510 240 114 112 200 253 245 399
37 119 48 187 56 367 2 58 9 128 16 155 18 75 92 225 182 369 80 129 83 132
142 159 369 168 579 572 579 1115 0 107 -12 329 -19 340 -2 3 -6 28 -9 55 -36
270 -155 583 -314 825 -112 172 -166 235 -467 544 -320 330 -453 535 -470 728
-20 214 148 347 384 306 24 -5 46 -10 49 -13 2 -2 -8 -19 -23 -37 -16 -18 -41
-60 -57 -93 -36 -77 -40 -194 -7 -265 66 -146 216 -181 323 -74 52 52 71 108
71 209 0 77 -4 98 -27 149 -16 32 -42 74 -59 94 l-32 36 44 39 c115 102 402
301 574 399 167 95 330 161 425 172 88 11 142 -39 182 -168 19 -61 22 -96 22
-241 1 -93 -3 -201 -7 -240 -28 -249 -110 -575 -217 -865 -75 -203 -231 -534
-300 -635 -33 -48 -57 -96 -55 -110 7 -43 40 -63 75 -45 33 18 97 125 210 355
167 341 280 670 355 1035 33 163 49 315 49 480 1 192 -16 296 -63 392 -104
211 -317 199 -736 -40 -219 -125 -495 -319 -620 -434 -17 -16 -36 -26 -45 -22
-83 32 -213 44 -310 30 -68 -11 -161 -58 -210 -107 -154 -156 -135 -430 49
-702 86 -128 188 -245 416 -477 348 -356 516 -615 621 -965 14 -44 26 -90 29
-102 2 -13 11 -58 19 -100 22 -112 25 -129 33 -218 13 -152 6 -463 -12 -518
-2 -7 -6 -28 -9 -47 -16 -109 -90 -295 -159 -401 -147 -227 -399 -361 -682
-362 -111 -1 -177 9 -272 42 -106 37 -201 93 -285 170 -241 222 -338 543 -247
818 l11 34 26 -33 c114 -147 340 -224 515 -177 185 50 327 232 395 505 31 124
35 134 63 134 25 0 157 62 186 88 53 47 14 132 -45 98 -11 -6 -39 -23 -63 -38
-64 -39 -148 -58 -284 -63 -132 -6 -237 -13 -275 -19 -263 -40 -435 -139 -550
-317 -39 -61 -96 -204 -106 -268 -3 -20 -8 -40 -11 -44 -3 -4 -5 -54 -5 -111
1 -390 277 -764 652 -884 134 -43 242 -53 398 -37 39 4 72 5 72 3 0 -3 -26
-47 -57 -99 -123 -204 -161 -322 -168 -519 -3 -69 -7 -136 -10 -150 -2 -13 -7
-42 -11 -64 -10 -69 -60 -202 -104 -280 -53 -92 -153 -204 -229 -255 -128 -86
-349 -151 -571 -167 -232 -17 -317 -9 -414 40 -39 19 -90 49 -114 65 l-42 31
54 58 c193 203 278 352 272 474 -5 95 -61 157 -180 198 -189 65 -460 36 -571
-62 -136 -120 -68 -324 200 -606 30 -31 55 -59 55 -62 0 -13 -155 -101 -211
-121 -86 -28 -304 -30 -466 -3 -180 30 -318 73 -420 130 -128 71 -255 224
-320 384 -51 123 -67 215 -78 435 -8 167 -56 298 -184 504 -27 44 -44 78 -38
76 45 -15 244 -21 326 -10 79 11 212 55 281 93 252 139 426 362 496 637 28
112 24 286 -10 400 -87 290 -265 454 -558 515 -97 20 -182 28 -358 35 -159 6
-253 31 -328 88 -71 54 -129 -24 -64 -85 34 -32 92 -62 162 -82 l55 -16 23
-98 c101 -416 343 -611 652 -525 85 23 167 71 232 136 32 33 61 58 63 56 2 -2
12 -39 23 -82 27 -105 26 -209 -2 -332 -20 -85 -82 -216 -141 -295 -45 -61
-148 -161 -208 -202 -225 -154 -504 -184 -777 -84 -149 55 -307 187 -389 326
-49 84 -108 225 -127 305 -33 139 -48 273 -47 425 0 95 10 262 18 290 2 8 6
38 10 65 5 40 27 150 50 245 34 144 149 394 255 551 97 145 170 232 384 454
220 228 261 274 347 385 101 131 158 235 195 355 27 89 25 242 -4 316 -42 105
-127 180 -246 214 -79 23 -211 21 -300 -4 l-70 -19 -60 52 c-300 258 -780 542
-991 585 -86 17 -119 19 -158 10z m1250 -843 c63 -82 77 -187 36 -258 -28 -49
-62 -65 -102 -49 -65 28 -95 126 -67 223 18 62 70 140 88 132 7 -3 28 -24 45
-48z m3750 -24 c37 -62 43 -163 14 -219 -39 -78 -93 -94 -142 -42 -67 72 -54
206 31 302 32 37 33 37 52 20 11 -10 31 -37 45 -61z m-3481 -2353 c1 -85 2
-88 32 -151 69 -141 212 -221 338 -189 54 14 147 76 184 123 62 79 54 75 79
40 l22 -31 -20 -39 c-59 -115 -225 -204 -365 -196 -189 10 -332 188 -400 495
l-6 26 67 -2 67 -1 2 -75z m3229 69 c3 -3 1 -26 -5 -49 -7 -24 -13 -51 -15
-59 -2 -8 -14 -45 -28 -82 -103 -284 -314 -390 -551 -278 -55 27 -145 110
-170 158 -16 31 -16 34 5 63 l22 31 26 -33 c44 -58 111 -117 159 -140 72 -35
170 -33 241 6 117 64 204 221 188 340 -4 23 -4 44 -2 47 7 7 123 3 130 -4z
m-1511 -2323 c131 -35 162 -93 112 -207 -38 -85 -247 -348 -278 -348 -14 0
-136 133 -197 213 -57 76 -100 159 -107 207 -7 41 20 87 65 109 94 48 279 60
405 26z"/>
<path d="M8532 7862 c-36 -24 -174 -480 -197 -657 -4 -27 -9 -53 -11 -56 -2
-3 -6 -34 -10 -70 -3 -35 -8 -66 -9 -69 -2 -3 -7 -48 -12 -100 -15 -175 -8
-576 12 -703 2 -12 6 -44 10 -72 6 -46 45 -279 60 -350 56 -281 70 -366 80
-475 4 -36 9 -76 11 -90 5 -31 5 -254 0 -295 -20 -160 -22 -171 -51 -280 -46
-171 -78 -258 -153 -405 -70 -138 -106 -184 -257 -326 -220 -206 -241 -246
-321 -612 -19 -90 -40 -176 -45 -190 -6 -15 -12 -34 -14 -42 -6 -31 -55 -150
-118 -290 -70 -155 -81 -191 -94 -285 -4 -33 -7 -325 -6 -650 2 -575 -2 -663
-32 -807 -63 -302 -327 -561 -527 -518 -56 11 -90 32 -160 97 -54 49 -57 49
-133 -10 -70 -53 -217 -123 -300 -143 -120 -27 -234 -5 -322 62 -18 14 -58 56
-89 94 -31 39 -61 70 -67 70 -6 0 -49 -19 -95 -42 -70 -34 -96 -42 -156 -45
-60 -3 -77 -1 -111 19 -75 44 -122 147 -166 368 -30 147 -30 363 -1 473 65
239 210 387 455 463 66 20 91 32 96 48 9 24 -6 54 -29 59 -26 6 -141 -31 -225
-72 -285 -138 -422 -389 -410 -756 2 -66 6 -140 10 -165 20 -137 71 -307 119
-395 28 -50 32 -66 25 -95 -8 -36 -5 -228 4 -266 17 -67 32 -104 43 -104 8 0
21 25 30 58 25 86 70 174 114 224 34 39 46 46 89 51 28 3 82 19 120 35 l69 29
37 -44 c20 -24 58 -61 83 -81 36 -29 46 -43 44 -62 -14 -148 -4 -288 28 -358
16 -37 31 -22 59 64 29 87 62 149 112 207 39 45 55 55 106 62 105 16 256 77
346 142 27 19 52 33 55 31 4 -2 23 -14 42 -27 l36 -24 -1 -141 c0 -139 12
-217 41 -259 15 -23 17 -20 54 88 16 49 41 107 56 129 39 60 116 135 138 136
37 0 148 64 211 123 156 142 259 363 280 597 3 41 8 94 11 117 7 61 7 323 0
753 -7 479 -3 510 99 725 91 191 166 421 191 580 31 205 95 341 210 444 245
218 337 352 449 646 36 95 92 316 102 401 10 87 10 386 1 479 -8 75 -24 194
-33 235 -3 14 -10 52 -16 85 -14 82 -48 260 -59 315 -5 25 -11 59 -14 75 -6
44 -17 116 -22 145 -36 222 -40 626 -8 850 36 255 78 431 154 655 63 187 61
178 36 192 -25 15 -37 16 -54 5z"/>
<path d="M4252 3798 c-15 -20 -22 -52 -14 -64 14 -22 169 -130 238 -166 70
-37 218 -91 284 -103 19 -4 91 -9 160 -11 227 -7 397 47 622 197 105 69 118
82 113 111 -13 63 -52 62 -151 -6 -207 -140 -367 -197 -559 -197 -193 0 -341
49 -531 177 -110 73 -142 86 -162 62z"/>
</g>
</svg>
