<svg width="313" height="60" viewBox="0 0 313 60" fill="none" xmlns="http://www.w3.org/2000/svg">
<path d="M119 15H26V45H119V15Z" fill="#FF0000"/>
<path d="M32.17 27.28L34.06 26.62V27.54C34.2981 27.218 34.6109 26.9587 34.9716 26.7845C35.3322 26.6103 35.7297 26.5264 36.13 26.54C36.5496 26.5467 36.9634 26.6397 37.3455 26.8131C37.7277 26.9865 38.0701 27.2367 38.3515 27.5481C38.6328 27.8594 38.8472 28.2254 38.9811 28.6231C39.115 29.0208 39.1657 29.4419 39.13 29.86C39.172 30.2784 39.1257 30.701 38.9938 31.1004C38.862 31.4997 38.6477 31.8669 38.3648 32.1781C38.082 32.4892 37.7368 32.7375 37.3518 32.9066C36.9668 33.0758 36.5505 33.1621 36.13 33.16C35.7313 33.1639 35.337 33.0757 34.978 32.9023C34.6189 32.7288 34.3048 32.4748 34.06 32.16V35.06H32.17V27.28ZM37.17 29.75C37.2009 29.5277 37.1839 29.3013 37.1199 29.0861C37.0559 28.871 36.9466 28.672 36.7992 28.5027C36.6518 28.3334 36.4699 28.1977 36.2656 28.1046C36.0613 28.0116 35.8395 27.9635 35.615 27.9635C35.3905 27.9635 35.1687 28.0116 34.9644 28.1046C34.7601 28.1977 34.5781 28.3334 34.4308 28.5027C34.2834 28.672 34.174 28.871 34.1101 29.0861C34.0461 29.3013 34.029 29.5277 34.06 29.75C34.029 29.9723 34.0461 30.1987 34.1101 30.4139C34.174 30.629 34.2834 30.828 34.4308 30.9973C34.5781 31.1666 34.7601 31.3023 34.9644 31.3954C35.1687 31.4884 35.3905 31.5365 35.615 31.5365C35.8395 31.5365 36.0613 31.4884 36.2656 31.3954C36.4699 31.3023 36.6518 31.1666 36.7992 30.9973C36.9466 30.828 37.0559 30.629 37.1199 30.4139C37.1839 30.1987 37.2009 29.9723 37.17 29.75V29.75Z" fill="white"/>
<path d="M46.72 26.45H48.6V27.54C48.99 26.62 49.6 26.39 50.76 26.44V28.07H50.66C49.39 28.07 48.61 29.07 48.61 30.66V32.92H46.72V26.45Z" fill="white"/>
<path d="M52.11 31.16V28.07H51.3V26.45H52.11V25.45L54 24.79V26.45H55.62V28.07H54V30.8C54 31.22 54.16 31.42 54.53 31.42C54.8159 31.4186 55.096 31.339 55.34 31.19V32.68C54.9134 32.9308 54.4246 33.0556 53.93 33.04C52.84 33 52.11 32.61 52.11 31.16Z" fill="white"/>
<path d="M56.15 26.4501H58V27.3701C58.2024 27.0641 58.477 26.8128 58.7997 26.6383C59.1224 26.4639 59.4832 26.3718 59.85 26.3701C60.2101 26.3483 60.5687 26.4311 60.8828 26.6086C61.1968 26.786 61.4529 27.0505 61.62 27.3701C61.8622 27.055 62.1744 26.8005 62.532 26.6269C62.8895 26.4534 63.2826 26.3654 63.68 26.3701C65.01 26.3701 65.8 27.1901 65.8 28.7501V32.9601H64.23V29.3601C64.23 28.5001 63.85 28.0601 63.17 28.0601C62.49 28.0601 62.07 28.5001 62.07 29.3601V32.9201H60.19V29.3601C60.19 28.5001 59.81 28.0601 59.13 28.0601C58.45 28.0601 58.03 28.5001 58.03 29.3601V32.9201H56.15V26.4501Z" fill="white"/>
<path d="M73.93 26.4499H75.82V27.3699C76.0255 27.0624 76.3036 26.8102 76.6298 26.6358C76.956 26.4614 77.3201 26.3701 77.69 26.3699C77.9983 26.3582 78.3053 26.4142 78.5896 26.534C78.8739 26.6538 79.1284 26.8345 79.3353 27.0633C79.5422 27.2921 79.6964 27.5635 79.7871 27.8584C79.8777 28.1532 79.9026 28.4644 79.86 28.7699V32.9599H78V29.3599C78 28.4999 77.61 28.0599 76.94 28.0599C76.27 28.0599 75.85 28.4999 75.85 29.3599V32.9199H73.93V26.4499Z" fill="white"/>
<path d="M80.46 29.8701C80.4412 29.4433 80.5085 29.0172 80.658 28.6171C80.8075 28.2169 81.036 27.851 81.33 27.5412C81.624 27.2313 81.9774 26.9839 82.3691 26.8136C82.7609 26.6433 83.1829 26.5537 83.61 26.55C85.74 26.55 86.72 28.2 86.72 30.01C86.72 30.15 86.72 30.32 86.72 30.49H82.26C82.3167 30.8557 82.5083 31.1868 82.7971 31.4182C83.0858 31.6496 83.4508 31.7644 83.82 31.74C84.1093 31.7449 84.3964 31.6896 84.6632 31.5777C84.93 31.4658 85.1707 31.2998 85.37 31.09L85.89 32.5201C85.2923 32.9803 84.5541 33.2205 83.8 33.2001C83.357 33.2198 82.9147 33.1473 82.5012 32.9871C82.0876 32.8269 81.7119 32.5825 81.3979 32.2694C81.0838 31.9563 80.8383 31.5813 80.6768 31.1683C80.5154 30.7552 80.4415 30.3131 80.46 29.8701V29.8701ZM84.96 29.14C84.9574 28.7819 84.8147 28.439 84.5623 28.1847C84.31 27.9305 83.9681 27.7853 83.61 27.7801C83.2505 27.7899 82.9081 27.9357 82.652 28.1881C82.3959 28.4406 82.2451 28.7808 82.23 29.14H84.96Z" fill="white"/>
<path d="M89.5 29.77C89.4946 29.33 89.5777 28.8934 89.7445 28.4861C89.9113 28.0789 90.1583 27.7094 90.4709 27.3996C90.7835 27.0898 91.1552 26.8461 91.5639 26.683C91.9727 26.5198 92.41 26.4406 92.85 26.45C93.5715 26.4312 94.2775 26.6607 94.85 27.1C94.71 27.46 94.29 28.64 94.29 28.64C94.1047 28.4402 93.8805 28.2803 93.6311 28.1703C93.3818 28.0602 93.1126 28.0023 92.84 28C92.4059 28.0543 92.0073 28.2674 91.7211 28.5982C91.4348 28.9291 91.2812 29.3542 91.2899 29.7916C91.2986 30.229 91.469 30.6476 91.7682 30.9668C92.0673 31.286 92.4741 31.4831 92.91 31.52C93.1872 31.5141 93.4602 31.4506 93.7115 31.3335C93.9628 31.2164 94.1871 31.0484 94.37 30.84L94.93 32.39C94.3333 32.8677 93.5837 33.1128 92.82 33.08C92.3827 33.0882 91.9481 33.0081 91.5423 32.8448C91.1365 32.6815 90.7677 32.4381 90.4579 32.1292C90.1482 31.8204 89.9037 31.4523 89.7391 31.047C89.5746 30.6417 89.4932 30.2074 89.5 29.77V29.77Z" fill="#C8C8C8"/>
<path d="M102.75 26.4501H104.64V27.3701C104.842 27.0641 105.117 26.8128 105.44 26.6383C105.762 26.4639 106.123 26.3718 106.49 26.3701C106.85 26.3483 107.209 26.4311 107.523 26.6086C107.837 26.786 108.093 27.0505 108.26 27.3701C108.502 27.055 108.814 26.8005 109.172 26.6269C109.529 26.4534 109.923 26.3654 110.32 26.3701C111.65 26.3701 112.44 27.1901 112.44 28.7501V32.9601H110.82V29.3601C110.82 28.5001 110.44 28.0601 109.76 28.0601C109.08 28.0601 108.66 28.5001 108.66 29.3601V32.9201H106.77V29.3601C106.77 28.5001 106.39 28.0601 105.71 28.0601C105.03 28.0601 104.61 28.5001 104.61 29.3601V32.9201H102.72L102.75 26.4501Z" fill="#C8C8C8"/>
<path d="M88.11 33.0901C88.6347 33.0901 89.06 32.6379 89.06 32.0801C89.06 31.5223 88.6347 31.0701 88.11 31.0701C87.5854 31.0701 87.16 31.5223 87.16 32.0801C87.16 32.6379 87.5854 33.0901 88.11 33.0901Z" fill="#C8C8C8"/>
<path d="M42.76 33.1199C42.0955 33.1199 41.4459 32.9228 40.8933 32.5536C40.3408 32.1844 39.9101 31.6597 39.6558 31.0457C39.4015 30.4318 39.3349 29.7562 39.4646 29.1044C39.5942 28.4526 39.9142 27.8539 40.3841 27.384C40.8541 26.9141 41.4527 26.5941 42.1045 26.4645C42.7563 26.3348 43.4319 26.4014 44.0458 26.6557C44.6598 26.91 45.1846 27.3406 45.5538 27.8932C45.923 28.4457 46.12 29.0954 46.12 29.7599C46.1174 30.6502 45.7625 31.5033 45.133 32.1329C44.5034 32.7624 43.6503 33.1173 42.76 33.1199V33.1199ZM42.76 28.1199C42.4436 28.1199 42.1342 28.2137 41.8711 28.3896C41.608 28.5654 41.4029 28.8152 41.2818 29.1076C41.1607 29.4 41.129 29.7217 41.1908 30.032C41.2525 30.3424 41.4049 30.6275 41.6287 30.8513C41.8524 31.075 42.1375 31.2274 42.4479 31.2892C42.7583 31.3509 43.08 31.3192 43.3723 31.1981C43.6647 31.077 43.9146 30.8719 44.0904 30.6088C44.2662 30.3457 44.36 30.0364 44.36 29.7199C44.3522 29.3008 44.1801 28.9015 43.8809 28.6079C43.5817 28.3143 43.1792 28.1498 42.76 28.1499V28.1199Z" fill="white"/>
<path d="M70 33.1199C69.3355 33.1199 68.6859 32.9228 68.1333 32.5536C67.5808 32.1844 67.1501 31.6597 66.8958 31.0457C66.6415 30.4318 66.5749 29.7562 66.7046 29.1044C66.8342 28.4526 67.1542 27.8539 67.6241 27.384C68.094 26.9141 68.6927 26.5941 69.3445 26.4645C69.9963 26.3348 70.6719 26.4014 71.2858 26.6557C71.8998 26.91 72.4246 27.3406 72.7938 27.8932C73.163 28.4457 73.36 29.0954 73.36 29.7599C73.3574 30.6502 73.0025 31.5033 72.373 32.1329C71.7434 32.7624 70.8903 33.1173 70 33.1199ZM70 28.1199C69.6836 28.1199 69.3742 28.2137 69.1111 28.3896C68.848 28.5654 68.6429 28.8152 68.5218 29.1076C68.4007 29.4 68.369 29.7217 68.4308 30.032C68.4925 30.3424 68.6449 30.6275 68.8686 30.8513C69.0924 31.075 69.3775 31.2274 69.6879 31.2892C69.9982 31.3509 70.32 31.3192 70.6123 31.1981C70.9047 31.077 71.1546 30.8719 71.3304 30.6088C71.5062 30.3457 71.6 30.0364 71.6 29.7199C71.5922 29.3008 71.4201 28.9015 71.1209 28.6079C70.8217 28.3143 70.4192 28.1498 70 28.1499V28.1199Z" fill="white"/>
<path d="M98.64 33.1199C97.9759 33.1199 97.3267 32.9231 96.7743 32.5543C96.222 32.1856 95.7914 31.6614 95.5368 31.048C95.2821 30.4346 95.215 29.7596 95.3439 29.1081C95.4727 28.4566 95.7917 27.8579 96.2606 27.3876C96.7295 26.9173 97.3273 26.5965 97.9784 26.4657C98.6295 26.3349 99.3048 26.4 99.9189 26.6528C100.533 26.9056 101.059 27.3347 101.429 27.8859C101.799 28.4372 101.998 29.0858 102 29.7499C102 30.642 101.646 31.4976 101.017 32.1293C100.387 32.761 99.5321 33.1173 98.64 33.1199V33.1199ZM98.64 28.1199C98.3236 28.1199 98.0142 28.2137 97.7511 28.3896C97.488 28.5654 97.2829 28.8152 97.1618 29.1076C97.0407 29.4 97.009 29.7217 97.0708 30.032C97.1325 30.3424 97.2849 30.6275 97.5086 30.8513C97.7324 31.075 98.0175 31.2274 98.3279 31.2892C98.6382 31.3509 98.9599 31.3192 99.2523 31.1981C99.5447 31.077 99.7946 30.8719 99.9704 30.6088C100.146 30.3457 100.24 30.0364 100.24 29.7199C100.232 29.3008 100.06 28.9015 99.7609 28.6079C99.4617 28.3143 99.0592 28.1498 98.64 28.1499V28.1199Z" fill="#C8C8C8"/>
<path d="M312.5 0.5H0.5V59.5H312.5V0.5Z" stroke="#A5A5A5" stroke-miterlimit="10"/>
<path d="M154.618 47.2113V44.9194C154.631 44.7267 154.604 44.5333 154.538 44.3521C154.472 44.171 154.369 44.0062 154.236 43.8689C154.102 43.7315 153.942 43.6247 153.765 43.5556C153.588 43.4865 153.399 43.4566 153.209 43.468C152.962 43.4516 152.715 43.5031 152.493 43.6173C152.272 43.7316 152.084 43.9042 151.951 44.1173C151.829 43.9106 151.655 43.7411 151.446 43.6269C151.238 43.5126 151.003 43.4577 150.767 43.468C150.561 43.4575 150.356 43.502 150.172 43.5971C149.988 43.6922 149.832 43.8347 149.718 44.0104V43.5597H148.939V47.2113H149.726V45.1868C149.709 45.0619 149.719 44.9347 149.756 44.8143C149.793 44.694 149.855 44.5834 149.939 44.4907C150.023 44.3979 150.126 44.3253 150.241 44.2779C150.355 44.2305 150.479 44.2096 150.602 44.2167C151.119 44.2167 151.381 44.5604 151.381 45.1792V47.2113H152.168V45.1868C152.152 45.0621 152.164 44.9354 152.201 44.8157C152.238 44.6959 152.301 44.5859 152.385 44.4934C152.468 44.401 152.571 44.3283 152.685 44.2805C152.799 44.2327 152.921 44.2109 153.045 44.2167C153.577 44.2167 153.831 44.5604 153.831 45.1792V47.2113H154.618ZM166.261 43.5597H164.987V42.452H164.2V43.5597H163.474V44.2854H164.2V45.9508C164.2 46.7987 164.522 47.3029 165.444 47.3029C165.788 47.304 166.126 47.206 166.418 47.0202L166.193 46.3403C165.984 46.4675 165.747 46.5384 165.504 46.5466C165.114 46.5466 164.987 46.3021 164.987 45.9355V44.2854H166.261V43.5597ZM172.906 43.468C172.716 43.4623 172.528 43.509 172.362 43.6031C172.196 43.6972 172.058 43.8353 171.962 44.0028V43.5597H171.19V47.2113H171.97V45.1639C171.97 44.5604 172.224 44.2243 172.734 44.2243C172.9 44.222 173.066 44.2531 173.221 44.316L173.46 43.5673C173.283 43.5024 173.095 43.4688 172.906 43.468V43.468ZM162.859 43.85C162.418 43.5826 161.911 43.45 161.398 43.468C160.492 43.468 159.907 43.9111 159.907 44.6368C159.907 45.2327 160.342 45.5994 161.143 45.714L161.511 45.7674C161.938 45.8284 162.14 45.9431 162.14 46.1493C162.14 46.432 161.855 46.5925 161.323 46.5925C160.895 46.605 160.476 46.4705 160.132 46.2105L159.765 46.8292C160.219 47.1524 160.762 47.3185 161.316 47.3029C162.35 47.3029 162.949 46.8063 162.949 46.1112C162.949 45.4695 162.477 45.1333 161.698 45.0187L161.331 44.9653C160.994 44.9195 160.724 44.8508 160.724 44.6063C160.724 44.3389 160.979 44.1785 161.406 44.1785C161.798 44.1845 162.182 44.2923 162.522 44.4917L162.859 43.85ZM183.732 43.468C183.542 43.4623 183.354 43.509 183.188 43.6031C183.022 43.6972 182.884 43.8353 182.788 44.0028V43.5597H182.016V47.2113H182.795V45.1639C182.795 44.5604 183.05 44.2243 183.56 44.2243C183.726 44.222 183.892 44.2531 184.047 44.316L184.286 43.5673C184.109 43.5024 183.921 43.4688 183.732 43.468V43.468ZM173.693 45.3854C173.682 45.6426 173.725 45.8992 173.818 46.1387C173.91 46.3782 174.051 46.5952 174.231 46.7758C174.411 46.9564 174.626 47.0966 174.863 47.1874C175.099 47.2782 175.351 47.3175 175.603 47.3029C176.071 47.3269 176.531 47.1716 176.892 46.8674L176.517 46.2257C176.248 46.4351 175.919 46.5503 175.581 46.5542C175.289 46.5362 175.014 46.4052 174.814 46.188C174.614 45.9707 174.502 45.6837 174.502 45.3854C174.502 45.0872 174.614 44.8001 174.814 44.5829C175.014 44.3657 175.289 44.2347 175.581 44.2167C175.919 44.2206 176.248 44.3358 176.517 44.5452L176.892 43.9034C176.531 43.5994 176.071 43.4441 175.603 43.468C175.351 43.4534 175.099 43.4928 174.863 43.5835C174.626 43.6743 174.411 43.8145 174.231 43.9951C174.051 44.1757 173.91 44.3927 173.818 44.6321C173.725 44.8716 173.682 45.1282 173.693 45.3854V45.3854ZM180.99 45.3854V43.5597H180.211V44.0028C180.078 43.828 179.906 43.6883 179.709 43.5952C179.512 43.5022 179.296 43.4586 179.079 43.468C178.597 43.4922 178.141 43.7047 177.808 44.0617C177.475 44.4186 177.289 44.8926 177.289 45.3855C177.289 45.8784 177.475 46.3524 177.808 46.7093C178.141 47.0662 178.597 47.2788 179.079 47.3029C179.296 47.3124 179.512 47.2687 179.709 47.1757C179.906 47.0826 180.078 46.9429 180.211 46.7681V47.2113H180.99V45.3854ZM178.09 45.3854C178.103 45.1699 178.176 44.9628 178.302 44.7895C178.429 44.6162 178.602 44.4843 178.801 44.4102C178.999 44.336 179.215 44.3228 179.421 44.3722C179.627 44.4215 179.815 44.5313 179.96 44.688C180.106 44.8446 180.203 45.0413 180.241 45.2538C180.278 45.4662 180.253 45.6851 180.17 45.8836C180.087 46.082 179.948 46.2512 179.772 46.3704C179.595 46.4896 179.389 46.5535 179.177 46.5542C179.029 46.5563 178.881 46.527 178.745 46.4681C178.608 46.4093 178.485 46.3222 178.383 46.2124C178.281 46.1026 178.202 45.9725 178.152 45.8301C178.101 45.6878 178.081 45.5363 178.09 45.3854V45.3854ZM168.688 43.468C168.202 43.4941 167.745 43.7111 167.413 44.0734C167.08 44.4356 166.898 44.9151 166.905 45.4112C166.912 45.9073 167.107 46.3814 167.449 46.7341C167.791 47.0868 168.254 47.2907 168.74 47.3029C169.275 47.3221 169.798 47.1398 170.209 46.791L169.827 46.2029C169.531 46.4446 169.165 46.579 168.785 46.5848C168.528 46.6069 168.272 46.5259 168.072 46.3591C167.872 46.1923 167.744 45.9527 167.714 45.691H170.374C170.381 45.5917 170.389 45.4924 170.389 45.3854C170.381 44.2472 169.692 43.468 168.688 43.468V43.468ZM168.673 44.1785C168.908 44.1738 169.136 44.2644 169.306 44.4305C169.476 44.5966 169.574 44.8247 169.58 45.0646H167.722C167.735 44.8195 167.842 44.5895 168.02 44.4239C168.198 44.2583 168.432 44.1702 168.673 44.1785V44.1785ZM188.22 45.3854V42.093H187.441V44.0028C187.308 43.828 187.135 43.6883 186.939 43.5952C186.742 43.5022 186.526 43.4586 186.309 43.468C185.826 43.4921 185.371 43.7047 185.038 44.0616C184.705 44.4186 184.519 44.8926 184.519 45.3855C184.519 45.8784 184.705 46.3524 185.038 46.7093C185.371 47.0663 185.826 47.2788 186.309 47.3029C186.526 47.3124 186.742 47.2687 186.939 47.1757C187.135 47.0826 187.308 46.9429 187.441 46.7681V47.2113H188.22V45.3854ZM189.519 46.682C189.567 46.6817 189.615 46.6914 189.66 46.7105C189.702 46.7288 189.742 46.7552 189.775 46.7884C189.808 46.8215 189.834 46.8607 189.852 46.904C189.871 46.9485 189.881 46.9964 189.881 47.0448C189.881 47.0932 189.871 47.1411 189.852 47.1856C189.834 47.2287 189.808 47.2678 189.775 47.3008C189.741 47.3339 189.702 47.3604 189.66 47.379C189.615 47.3984 189.567 47.4083 189.519 47.4079C189.447 47.4087 189.377 47.388 189.318 47.3484C189.258 47.3089 189.211 47.2522 189.182 47.1856C189.164 47.1411 189.154 47.0932 189.154 47.0448C189.154 46.9964 189.164 46.9485 189.182 46.904C189.201 46.8608 189.227 46.8215 189.26 46.7884C189.293 46.755 189.332 46.7285 189.375 46.7105C189.421 46.6914 189.469 46.6817 189.519 46.682V46.682ZM189.519 47.3279C189.556 47.3282 189.592 47.3206 189.626 47.3056C189.659 47.2912 189.688 47.2707 189.713 47.2451C189.765 47.1919 189.794 47.1199 189.794 47.045C189.794 46.97 189.765 46.8981 189.713 46.8448C189.688 46.8193 189.659 46.7989 189.626 46.7848C189.592 46.7701 189.555 46.7627 189.519 46.763C189.481 46.7627 189.444 46.7701 189.409 46.7848C189.376 46.7987 189.346 46.8191 189.321 46.8448C189.269 46.8981 189.24 46.97 189.24 47.045C189.24 47.1199 189.269 47.1919 189.321 47.2451C189.346 47.2709 189.376 47.2915 189.409 47.3056C189.444 47.3206 189.481 47.3281 189.519 47.3279V47.3279ZM189.54 46.875C189.575 46.8727 189.609 46.883 189.638 46.904C189.649 46.9135 189.658 46.9256 189.664 46.9392C189.67 46.9529 189.673 46.9678 189.672 46.9827C189.673 46.9955 189.67 47.0083 189.666 47.0201C189.661 47.032 189.654 47.0427 189.645 47.0516C189.623 47.0713 189.596 47.083 189.567 47.085L189.675 47.2122H189.59L189.49 47.0859H189.458V47.2122H189.387V46.875H189.54ZM189.458 46.9383V47.0281H189.539C189.554 47.0289 189.57 47.025 189.583 47.0169C189.589 47.0132 189.593 47.0081 189.596 47.0021C189.599 46.9961 189.6 46.9894 189.6 46.9827C189.6 46.9762 189.599 46.9696 189.596 46.9638C189.593 46.9579 189.589 46.9529 189.583 46.9493C189.57 46.9413 189.554 46.9375 189.539 46.9383H189.458ZM185.32 45.3854C185.332 45.1699 185.406 44.9628 185.532 44.7895C185.659 44.6162 185.832 44.4844 186.03 44.4103C186.229 44.3361 186.445 44.3229 186.651 44.3723C186.857 44.4217 187.044 44.5314 187.19 44.6881C187.336 44.8447 187.433 45.0414 187.47 45.2539C187.508 45.4663 187.483 45.6852 187.4 45.8836C187.317 46.0821 187.178 46.2513 187.002 46.3704C186.825 46.4896 186.618 46.5535 186.407 46.5542C186.258 46.5563 186.111 46.5269 185.974 46.4681C185.838 46.4093 185.714 46.3222 185.612 46.2124C185.51 46.1026 185.432 45.9724 185.381 45.8301C185.331 45.6877 185.31 45.5363 185.32 45.3854V45.3854ZM159.008 45.3854V43.5597H158.229V44.0028C158.096 43.828 157.924 43.6883 157.727 43.5952C157.53 43.5022 157.315 43.4586 157.098 43.468C156.615 43.4922 156.16 43.7047 155.826 44.0617C155.493 44.4186 155.307 44.8926 155.307 45.3855C155.307 45.8784 155.493 46.3524 155.826 46.7093C156.16 47.0662 156.615 47.2788 157.098 47.3029C157.315 47.3124 157.53 47.2687 157.727 47.1757C157.924 47.0826 158.096 46.9429 158.229 46.7681V47.2113H159.008V45.3854ZM156.109 45.3854C156.121 45.1699 156.195 44.9628 156.321 44.7895C156.447 44.6162 156.62 44.4844 156.819 44.4103C157.018 44.3361 157.233 44.3229 157.44 44.3723C157.646 44.4217 157.833 44.5314 157.979 44.6881C158.124 44.8447 158.222 45.0414 158.259 45.2539C158.296 45.4663 158.272 45.6852 158.188 45.8836C158.105 46.0821 157.967 46.2513 157.79 46.3704C157.614 46.4896 157.407 46.5535 157.195 46.5542C157.047 46.5563 156.9 46.527 156.763 46.4681C156.626 46.4093 156.503 46.3222 156.401 46.2124C156.299 46.1026 156.22 45.9724 156.17 45.8301C156.12 45.6877 156.099 45.5363 156.109 45.3854V45.3854Z" fill="#231F20"/>
<path d="M174.401 15.7297H162.599V37.3541H174.401V15.7297Z" fill="#FF5F00"/>
<path d="M163.349 26.541C163.348 24.4584 163.81 22.4027 164.703 20.5295C165.595 18.6563 166.894 17.0146 168.501 15.7288C166.511 14.1342 164.122 13.1425 161.605 12.8671C159.089 12.5917 156.548 13.0438 154.271 14.1716C151.995 15.2994 150.076 17.0574 148.733 19.2448C147.39 21.4321 146.678 23.9605 146.678 26.541C146.678 29.1215 147.39 31.6499 148.733 33.8372C150.076 36.0246 151.995 37.7827 154.271 38.9104C156.548 40.0382 159.089 40.4903 161.605 40.2149C164.122 39.9395 166.511 38.9478 168.501 37.3532C166.894 36.0674 165.595 34.4258 164.703 32.5525C163.81 30.6793 163.348 28.6236 163.349 26.541V26.541Z" fill="#EB001B"/>
<path d="M190.322 26.541C190.322 29.1214 189.61 31.6498 188.268 33.8372C186.925 36.0246 185.006 37.7826 182.73 38.9104C180.453 40.0382 177.912 40.4903 175.396 40.2149C172.879 39.9395 170.49 38.9478 168.5 37.3532C170.106 36.0661 171.403 34.4242 172.296 32.5513C173.188 30.6783 173.652 28.6233 173.652 26.541C173.652 24.4588 173.188 22.4037 172.296 20.5308C171.403 18.6578 170.106 17.0159 168.5 15.7288C170.49 14.1342 172.879 13.1425 175.396 12.8671C177.912 12.5917 180.453 13.0438 182.73 14.1716C185.006 15.2994 186.925 17.0575 188.268 19.2448C189.61 21.4322 190.322 23.9606 190.322 26.541V26.541Z" fill="#F79E1B"/>
<path d="M189.035 35.0655V34.6228H189.21V34.5326H188.764V34.6228H188.94V35.0655H189.035ZM189.901 35.0655V34.5317H189.764L189.607 34.8989L189.45 34.5317H189.313V35.0655H189.41V34.6629L189.557 35.01H189.657L189.804 34.662V35.0655H189.901Z" fill="#F79E1B"/>
<g clip-path="url(#clip0_5629_30937)">
<path d="M244.198 19.3887L235.164 40.6674H229.271L224.825 23.686C224.555 22.6399 224.321 22.2569 223.5 21.8164C222.16 21.0984 219.947 20.4252 218 20.0071L218.132 19.3887H227.619C228.829 19.3887 229.916 20.1834 230.19 21.5584L232.538 33.8714L238.341 19.3887H244.198ZM267.291 33.7199C267.314 28.104 259.425 27.7945 259.479 25.2858C259.496 24.5223 260.232 23.7106 261.844 23.5032C262.643 23.3999 264.844 23.321 267.341 24.4555L268.32 19.9434C266.979 19.4628 265.252 19 263.105 19C257.594 19 253.715 21.8924 253.683 26.0339C253.647 29.0972 256.451 30.8066 258.563 31.8244C260.736 32.867 261.465 33.5367 261.457 34.4692C261.442 35.8967 259.724 36.5269 258.119 36.5515C255.316 36.594 253.69 35.8028 252.394 35.2078L251.383 39.8694C252.686 40.4595 255.09 40.9743 257.584 41C263.441 41 267.273 38.1436 267.291 33.7199V33.7199ZM281.843 40.6674H287L282.499 19.3887H277.739C277.231 19.3842 276.733 19.5307 276.31 19.809C275.887 20.0874 275.558 20.4849 275.366 20.9498L267 40.6674H272.854L274.017 37.4888H281.17L281.843 40.6674ZM275.622 33.1277L278.557 25.1383L280.246 33.1277H275.622ZM252.164 19.3887L247.554 40.6674H241.979L246.591 19.3887H252.164Z" fill="#1434CB"/>
</g>
<defs>
<clipPath id="clip0_5629_30937">
<rect width="69" height="22" fill="white" transform="translate(218 19)"/>
</clipPath>
</defs>
</svg>
